# MagicaVoxel @ ephtracy

# material
mtllib 16_16_60_a.mtl
usemtl palette

# normals
vn -1 0 0
vn 1 0 0
vn 0 0 1
vn 0 0 -1
vn 0 -1 0
vn 0 1 0

# texcoords
vt 0.470703 0.5
vt 0.658203 0.5

# verts
v -8 0 8
v -8 0 -8
v -8 2 6
v -8 2 -6
v -8 14 6
v -8 14 -6
v -8 16 8
v -8 16 -8
v -8 60 8
v -8 60 -8
v 6 0 -4
v 6 0 -6
v 6 2 -4
v 6 2 -6
v -6 0 -4
v -6 0 -6
v -6 2 -4
v -6 2 -6
v 8 0 8
v 8 0 -8
v 8 2 6
v 8 2 -6
v 8 14 6
v 8 14 -6
v 8 16 8
v 8 16 -8
v 8 60 8
v 8 60 -8
v -8 0 8
v -8 16 8
v -8 60 8
v -6 2 8
v -6 14 8
v 6 2 8
v 6 14 8
v 8 0 8
v 8 16 8
v 8 60 8
v -6 0 -6
v -6 2 -6
v 6 0 -6
v 6 2 -6
v -6 0 -4
v -6 2 -4
v 6 0 -4
v 6 2 -4
v -8 0 -8
v -8 16 -8
v -8 60 -8
v -6 2 -8
v -6 14 -8
v 6 2 -8
v 6 14 -8
v 8 0 -8
v 8 16 -8
v 8 60 -8
v -8 0 8
v 8 0 8
v -6 0 6
v 6 0 6
v -6 0 -4
v 6 0 -4
v -6 0 -6
v 6 0 -6
v -8 0 -8
v 8 0 -8
v -6 2 -4
v 6 2 -4
v -6 2 -6
v 6 2 -6
v -8 60 8
v 8 60 8
v -8 60 -8
v 8 60 -8

# faces
f 3/1/1 2/1/1 1/1/1
f 4/1/1 2/1/1 3/1/1
f 5/1/1 3/1/1 1/1/1
f 5/2/1 4/2/1 3/2/1
f 6/1/1 2/1/1 4/1/1
f 6/2/1 4/2/1 5/2/1
f 7/1/1 5/1/1 1/1/1
f 7/1/1 6/1/1 5/1/1
f 8/1/1 2/1/1 6/1/1
f 8/1/1 6/1/1 7/1/1
f 9/2/1 8/2/1 7/2/1
f 10/2/1 8/2/1 9/2/1
f 13/1/1 12/1/1 11/1/1
f 14/1/1 12/1/1 13/1/1
f 15/1/2 16/1/2 17/1/2
f 17/1/2 16/1/2 18/1/2
f 19/1/2 20/1/2 21/1/2
f 21/1/2 20/1/2 22/1/2
f 19/1/2 21/1/2 23/1/2
f 21/2/2 22/2/2 23/2/2
f 22/1/2 20/1/2 24/1/2
f 23/2/2 22/2/2 24/2/2
f 19/1/2 23/1/2 25/1/2
f 23/1/2 24/1/2 25/1/2
f 24/1/2 20/1/2 26/1/2
f 25/1/2 24/1/2 26/1/2
f 25/2/2 26/2/2 27/2/2
f 27/2/2 26/2/2 28/2/2
f 32/1/3 30/1/3 29/1/3
f 33/1/3 30/1/3 32/1/3
f 34/1/3 32/1/3 29/1/3
f 34/2/3 33/2/3 32/2/3
f 35/1/3 30/1/3 33/1/3
f 35/2/3 33/2/3 34/2/3
f 36/1/3 34/1/3 29/1/3
f 36/1/3 35/1/3 34/1/3
f 37/2/3 31/2/3 30/2/3
f 37/1/3 35/1/3 36/1/3
f 37/1/3 30/1/3 35/1/3
f 38/2/3 31/2/3 37/2/3
f 41/1/3 40/1/3 39/1/3
f 42/1/3 40/1/3 41/1/3
f 43/2/4 44/2/4 45/2/4
f 45/2/4 44/2/4 46/2/4
f 47/1/4 48/1/4 50/1/4
f 50/1/4 48/1/4 51/1/4
f 47/1/4 50/1/4 52/1/4
f 50/2/4 51/2/4 52/2/4
f 51/1/4 48/1/4 53/1/4
f 52/2/4 51/2/4 53/2/4
f 47/1/4 52/1/4 54/1/4
f 52/1/4 53/1/4 54/1/4
f 48/2/4 49/2/4 55/2/4
f 54/1/4 53/1/4 55/1/4
f 53/1/4 48/1/4 55/1/4
f 55/2/4 49/2/4 56/2/4
f 59/1/5 58/1/5 57/1/5
f 60/1/5 58/1/5 59/1/5
f 61/1/5 59/1/5 57/1/5
f 61/2/5 60/2/5 59/2/5
f 62/1/5 58/1/5 60/1/5
f 62/2/5 60/2/5 61/2/5
f 63/1/5 61/1/5 57/1/5
f 64/1/5 58/1/5 62/1/5
f 65/1/5 63/1/5 57/1/5
f 65/1/5 64/1/5 63/1/5
f 66/1/5 58/1/5 64/1/5
f 66/1/5 64/1/5 65/1/5
f 69/2/5 68/2/5 67/2/5
f 70/2/5 68/2/5 69/2/5
f 71/2/6 72/2/6 73/2/6
f 73/2/6 72/2/6 74/2/6
